<svg xmlns="http://www.w3.org/2000/svg" xmlns:xlink="http://www.w3.org/1999/xlink" width="500" zoomAndPan="magnify" viewBox="0 0 375 374.999991" height="500" preserveAspectRatio="xMidYMid meet" version="1.0"><path fill="#014a3f" d="M 205 204.203125 C 212.910156 206.5625 207.582031 204.957031 205 204.1875 Z M 205 204.203125 " fill-opacity="1" fill-rule="evenodd"/><path fill="#014a3f" d="M 259.082031 170.046875 C 262.960938 165.761719 268.203125 163.457031 273.546875 163.195312 C 278.898438 162.929688 284.34375 164.703125 288.621094 168.578125 C 292.90625 172.453125 295.210938 177.703125 295.480469 183.042969 C 295.742188 188.386719 293.972656 193.839844 290.097656 198.125 C 286.222656 202.410156 280.972656 204.714844 275.625 204.976562 C 270.28125 205.242188 264.828125 203.46875 260.550781 199.59375 C 256.269531 195.71875 253.960938 190.46875 253.699219 185.128906 C 253.429688 179.785156 255.207031 174.332031 259.082031 170.046875 " fill-opacity="1" fill-rule="evenodd"/><path fill="#014a3f" d="M 203 313.015625 L 209.570312 312.742188 C 222.519531 312.1875 235.4375 307.230469 246.703125 301.015625 C 259.855469 293.765625 274.09375 282.925781 284.214844 271.746094 C 291.195312 264.039062 297.542969 253.910156 302.617188 244.792969 C 305.613281 239.394531 312.871094 225.503906 313.058594 219.398438 C 313.148438 216.601562 321.464844 210.253906 323.550781 208.460938 C 327.734375 204.882812 332.917969 200.625 336.125 196.164062 C 339.65625 191.246094 340.800781 186.953125 335.355469 183.042969 C 332.144531 180.734375 328.652344 180.585938 324.914062 181.636719 C 321.050781 182.722656 317.171875 185.078125 313.867188 187.308594 C 310.40625 189.640625 307.0625 192.203125 303.734375 194.722656 C 295.199219 201.183594 286.019531 208.144531 276.042969 212.179688 C 254.398438 220.914062 225.929688 213.210938 204.527344 206.808594 C 204.441406 206.796875 204.339844 206.769531 204.246094 206.742188 L 202.21875 206.144531 C 197.007812 204.585938 191.039062 204.640625 186.496094 207.960938 C 184.558594 209.382812 183.082031 211.277344 182.226562 213.523438 C 181.335938 215.839844 181.1875 218.347656 181.660156 220.773438 C 183.046875 227.90625 189.339844 233.304688 195.425781 236.621094 C 204.03125 241.296875 213.398438 243.136719 222.917969 244.894531 C 230.828125 246.363281 244.863281 248.007812 245.933594 258.167969 C 246.472656 263.234375 240.09375 271.875 237.203125 275.75 C 228.617188 287.265625 217.890625 298.292969 207.667969 308.394531 Z M 203 313.015625 " fill-opacity="1" fill-rule="evenodd"/><path fill="#a0bc94" d="M 207.507812 166.691406 C 209.867188 158.789062 208.269531 164.109375 207.492188 166.683594 Z M 207.507812 166.691406 " fill-opacity="1" fill-rule="evenodd"/><path fill="#a0bc94" d="M 173.339844 112.609375 C 169.058594 108.738281 166.753906 103.496094 166.484375 98.144531 C 166.214844 92.800781 167.996094 87.351562 171.875 83.0625 C 175.75 78.785156 180.992188 76.472656 186.34375 76.203125 C 191.6875 75.941406 197.136719 77.722656 201.417969 81.59375 C 205.703125 85.46875 208.007812 90.71875 208.269531 96.070312 C 208.53125 101.414062 206.757812 106.863281 202.886719 111.148438 C 199.011719 115.425781 193.761719 117.738281 188.410156 118 C 183.082031 118.265625 177.628906 116.492188 173.339844 112.609375 " fill-opacity="1" fill-rule="evenodd"/><path fill="#a0bc94" d="M 210.109375 167.175781 C 210.089844 167.265625 210.066406 167.359375 210.039062 167.4375 L 209.433594 169.46875 C 207.882812 174.683594 207.9375 180.644531 211.261719 185.1875 C 212.683594 187.128906 214.574219 188.605469 216.828125 189.460938 C 219.136719 190.34375 221.636719 190.492188 224.070312 190.027344 C 231.207031 188.636719 236.609375 182.351562 239.917969 176.265625 C 244.59375 167.65625 246.425781 158.296875 248.199219 148.773438 C 249.667969 140.863281 251.304688 126.828125 261.472656 125.75 C 266.539062 125.210938 275.179688 131.597656 279.054688 134.488281 C 290.570312 143.074219 301.597656 153.800781 311.699219 164.015625 L 316.320312 168.691406 L 316.046875 162.121094 C 315.492188 149.179688 310.535156 136.25 304.320312 124.988281 C 297.070312 111.835938 286.222656 97.597656 275.050781 87.484375 C 267.34375 80.511719 257.214844 74.148438 248.089844 69.074219 C 242.695312 66.078125 228.808594 58.828125 222.703125 58.632812 C 219.90625 58.542969 213.550781 50.230469 211.765625 48.140625 C 208.1875 43.957031 203.929688 38.773438 199.460938 35.566406 C 194.542969 32.035156 190.257812 30.890625 186.347656 36.328125 C 184.03125 39.550781 183.890625 43.03125 184.941406 46.773438 C 186.027344 50.632812 188.382812 54.515625 190.613281 57.816406 C 192.945312 61.28125 195.5 64.621094 198.019531 67.957031 C 204.480469 76.496094 211.449219 85.664062 215.472656 95.652344 C 224.210938 117.292969 216.507812 145.777344 210.109375 167.175781 " fill-opacity="1" fill-rule="evenodd"/><path fill="#2e8685" d="M 169.984375 164.183594 C 162.078125 161.828125 167.402344 163.429688 169.984375 164.199219 Z M 169.984375 164.183594 " fill-opacity="1" fill-rule="evenodd"/><path fill="#2e8685" d="M 115.910156 198.347656 C 112.035156 202.625 106.785156 204.929688 101.433594 205.199219 C 96.085938 205.460938 90.640625 203.691406 86.355469 199.816406 C 82.078125 195.941406 79.765625 190.691406 79.503906 185.347656 C 79.238281 180.007812 81.003906 174.554688 84.886719 170.269531 C 88.761719 165.992188 94.011719 163.679688 99.351562 163.417969 C 104.703125 163.152344 110.148438 164.925781 114.433594 168.800781 C 118.710938 172.675781 121.023438 177.925781 121.285156 183.265625 C 121.5625 188.609375 119.789062 194.0625 115.910156 198.347656 " fill-opacity="1" fill-rule="evenodd"/><path fill="#2e8685" d="M 171.992188 55.371094 L 165.421875 55.648438 C 152.46875 56.199219 139.554688 61.160156 128.292969 67.371094 C 115.148438 74.613281 100.902344 85.464844 90.78125 96.636719 C 83.800781 104.34375 77.449219 114.464844 72.375 123.59375 C 69.375 128.984375 62.125 142.878906 61.929688 148.984375 C 61.84375 151.785156 53.535156 158.132812 51.4375 159.917969 C 47.253906 163.503906 42.070312 167.757812 38.863281 172.222656 C 35.335938 177.136719 34.1875 181.425781 39.625 185.335938 C 42.855469 187.648438 46.335938 187.796875 50.070312 186.742188 C 53.929688 185.660156 57.804688 183.300781 61.113281 181.070312 C 64.578125 178.734375 67.925781 176.179688 71.253906 173.660156 C 79.800781 167.195312 88.96875 160.230469 98.949219 156.199219 C 120.585938 147.46875 149.0625 155.167969 170.460938 161.570312 C 170.554688 161.589844 170.648438 161.609375 170.75 161.644531 L 172.773438 162.25 C 177.988281 163.808594 183.949219 163.746094 188.492188 160.425781 C 190.433594 159.003906 191.910156 157.109375 192.765625 154.867188 C 193.652344 152.554688 193.800781 150.046875 193.332031 147.621094 C 191.941406 140.480469 185.648438 135.082031 179.5625 131.773438 C 170.953125 127.097656 161.59375 125.265625 152.074219 123.5 C 144.160156 122.03125 130.125 120.386719 129.046875 110.226562 C 128.507812 105.152344 134.890625 96.519531 137.78125 92.644531 C 146.367188 81.136719 157.097656 70.101562 167.3125 60 Z M 171.992188 55.371094 " fill-opacity="1" fill-rule="evenodd"/><path fill="#a0bc94" d="M 167.488281 201.703125 C 165.132812 209.613281 166.734375 204.289062 167.503906 201.710938 Z M 167.488281 201.703125 " fill-opacity="1" fill-rule="evenodd"/><path fill="#a0bc94" d="M 201.644531 255.785156 C 205.929688 259.65625 208.234375 264.90625 208.503906 270.257812 C 208.765625 275.601562 206.996094 281.050781 203.113281 285.328125 C 199.238281 289.617188 193.992188 291.921875 188.640625 292.183594 C 183.289062 292.453125 177.847656 290.671875 173.558594 286.800781 C 169.273438 282.917969 166.96875 277.675781 166.707031 272.324219 C 166.445312 266.980469 168.21875 261.53125 172.097656 257.246094 C 175.972656 252.960938 181.222656 250.65625 186.566406 250.394531 C 191.910156 250.128906 197.359375 251.910156 201.644531 255.785156 " fill-opacity="1" fill-rule="evenodd"/><path fill="#a0bc94" d="M 164.875 201.238281 C 164.894531 201.136719 164.914062 201.042969 164.949219 200.949219 L 165.550781 198.921875 C 167.105469 193.710938 167.042969 187.742188 163.722656 183.199219 C 162.300781 181.257812 160.40625 179.785156 158.164062 178.921875 C 155.851562 178.039062 153.347656 177.882812 150.921875 178.355469 C 143.777344 179.742188 138.378906 186.03125 135.070312 192.121094 C 130.394531 200.734375 128.554688 210.09375 126.792969 219.613281 C 125.320312 227.523438 123.683594 241.558594 113.515625 242.636719 C 108.449219 243.167969 99.8125 236.796875 95.9375 233.898438 C 84.421875 225.3125 73.382812 214.585938 63.289062 204.371094 L 58.667969 199.695312 L 58.945312 206.265625 C 59.496094 219.214844 64.457031 232.132812 70.667969 243.398438 C 77.917969 256.539062 88.769531 270.789062 99.941406 280.910156 C 107.648438 287.882812 117.769531 294.246094 126.898438 299.3125 C 132.296875 302.308594 146.183594 309.558594 152.289062 309.75 C 155.089844 309.828125 161.4375 318.152344 163.230469 320.242188 C 166.808594 324.417969 171.0625 329.605469 175.527344 332.808594 C 180.445312 336.335938 184.738281 337.484375 188.640625 332.046875 C 190.953125 328.824219 191.101562 325.335938 190.054688 321.601562 C 188.964844 317.742188 186.605469 313.867188 184.382812 310.5625 C 182.042969 307.101562 179.488281 303.753906 176.96875 300.417969 C 170.507812 291.878906 163.539062 282.703125 159.511719 272.722656 C 150.777344 251.105469 158.480469 222.636719 164.875 201.238281 " fill-opacity="1" fill-rule="evenodd"/></svg>